<svg viewBox="0 0 55 24" fill="none" xmlns="http://www.w3.org/2000/svg">
  <rect x=".5" y=".5" width="54" height="23" rx="10.5" stroke="currentColor"/>
  <path d="M16.8 13.668c0 1.842-.325 3.226-.976 4.15-.644.918-1.614 1.377-2.91 1.377-.8 0-1.468-.143-2.002-.43-.527-.292-.957-.761-1.289-1.406h-.02c0 .13-.006.32-.019.567-.013.247-.026.478-.04.693a2.65 2.65 0 0 1-.038.381h-1.7c.02-.176.033-.443.04-.8.013-.365.02-.824.02-1.378V4.508h1.757v4.13c0 .209-.003.44-.01.694-.006.247-.016.514-.029.8h.039c.326-.676.755-1.161 1.29-1.454.54-.293 1.207-.44 2.001-.44 1.335 0 2.315.45 2.94 1.348.631.898.947 2.26.947 4.082Zm-1.845.059c0-1.478-.195-2.536-.586-3.174-.39-.638-1.025-.957-1.904-.957-.99 0-1.712.338-2.168 1.015-.45.677-.674 1.752-.674 3.223 0 1.387.221 2.412.664 3.076.443.658 1.162.986 2.158.986.886 0 1.524-.325 1.914-.976.398-.658.596-1.722.596-3.193Zm6.39.36c0 1.212.251 2.146.753 2.804.501.657 1.233.986 2.197.986.762 0 1.37-.153 1.826-.459.462-.306.775-.693.938-1.162l1.543.44c-.632 1.666-2.067 2.5-4.307 2.5-1.563 0-2.754-.466-3.574-1.397-.814-.931-1.221-2.315-1.221-4.15 0-1.745.407-3.083 1.22-4.014.821-.931 1.99-1.397 3.507-1.397 1.556 0 2.72.469 3.496 1.407.774.937 1.162 2.34 1.162 4.209v.234h-7.54Zm5.723-1.347c-.097-1.113-.38-1.924-.85-2.431-.468-.515-1.142-.772-2.02-.772-.854 0-1.53.287-2.032.86-.495.566-.762 1.347-.8 2.343h5.702Zm9.125 6.182a6.727 6.727 0 0 1-1.777.234c-.703 0-1.23-.198-1.582-.595-.352-.404-.527-1.003-.527-1.797V9.713h-1.221v-1.28h1.289l.518-2.363h1.172v2.364h1.953v1.279h-1.953v6.67c0 .508.08.866.244 1.074.169.202.459.303.869.303.221 0 .56-.046 1.015-.137v1.299Zm5.2.273c-1.062 0-1.86-.28-2.393-.84-.534-.56-.8-1.328-.8-2.304 0-1.094.357-1.934 1.073-2.52.723-.586 1.885-.898 3.487-.937l2.373-.04v-.575c0-.86-.183-1.475-.547-1.846-.365-.371-.938-.557-1.719-.557-.788 0-1.36.134-1.719.4-.358.267-.573.694-.644 1.28l-1.836-.166c.3-1.901 1.712-2.852 4.238-2.852 1.328 0 2.328.306 2.998.918.67.606 1.006 1.485 1.006 2.637v4.55c0 .522.069.916.205 1.182.137.26.397.391.782.391.182 0 .374-.023.576-.068v1.093a5.818 5.818 0 0 1-1.358.157c-.65 0-1.126-.17-1.425-.508-.293-.345-.46-.882-.499-1.611h-.058c-.45.807-.974 1.38-1.573 1.718-.592.332-1.315.498-2.167.498Zm3.74-5.41-1.924.04c-.82.006-1.445.09-1.875.253-.43.156-.759.397-.986.723-.228.325-.342.752-.342 1.28 0 .572.153 1.015.459 1.327.312.313.755.469 1.328.469.651 0 1.224-.146 1.719-.44a3.173 3.173 0 0 0 1.181-1.2 3.16 3.16 0 0 0 .44-1.583v-.869Z" fill="currentColor"/>
</svg>
